<svg width="18" height="23" viewBox="0 0 18 23" fill="none" xmlns="http://www.w3.org/2000/svg">
<g clip-path="url(#clip0_23_870)">
<path d="M3.86118 6.54224L5.40674 6.54224L5.40674 5.03014L3.86118 5.03014L3.86118 6.54224Z" fill="#E3DEEA"/>
<path d="M5.40659 5.03064L6.95215 5.03064L6.95215 3.51855L5.40659 3.51855L5.40659 5.03064Z" fill="#E3DEEA"/>
<path d="M6.952 3.51855L8.49756 3.51855L8.49756 2.00646L6.952 2.00646L6.952 3.51855Z" fill="#E3DEEA"/>
<path d="M8.4979 2.00647L10.0435 2.00647L10.0435 0.494375L8.4979 0.494375L8.4979 2.00647Z" fill="#E3DEEA"/>
<path d="M10.0433 3.51855L11.5889 3.51855L11.5889 2.00646L10.0433 2.00646L10.0433 3.51855Z" fill="#E3DEEA"/>
<path d="M11.5882 5.03064L13.1338 5.03064L13.1338 3.51855L11.5882 3.51855L11.5882 5.03064Z" fill="#E3DEEA"/>
<path d="M13.1336 6.54224L14.6792 6.54224L14.6792 5.03014L13.1336 5.03014L13.1336 6.54224Z" fill="#E3DEEA"/>
<path d="M11.5888 8.0543L11.5888 20.9823L6.95217 20.9823L6.95217 8.0543L3.86162 8.0543L3.86162 6.54221L2.31606 6.54221L2.31606 8.0543L0.770507 8.0543L0.770507 9.5664L5.40662 9.5664L5.40661 22.4944L13.1338 22.4944L13.1338 9.5664L17.7705 9.5664L17.7705 8.0543L16.225 8.0543L16.225 6.54221L14.6794 6.54221L14.6794 8.0543L11.5888 8.0543Z" fill="#E3DEEA"/>
</g>
<defs>
<clipPath id="clip0_23_870">
<rect width="17" height="22" fill="white" transform="translate(17.7705 22.4944) rotate(-180)"/>
</clipPath>
</defs>
</svg>
