<svg width="18" height="18" viewBox="0 0 18 18" fill="none" xmlns="http://www.w3.org/2000/svg">
<g clip-path="url(#clip0_1_3620)">
<path d="M10.528 7.08911H7.01855V10.5985H10.528V7.08911Z" fill="#131315"/>
<path d="M10.528 3.57959L7.01855 3.57959V7.08899H10.528V3.57959Z" fill="#131315"/>
<path d="M10.528 0.0703125L7.01855 0.0703125V3.57971L10.528 3.57971V0.0703125Z" fill="#131315"/>
<path d="M14.0377 3.57959L10.5283 3.57959V7.08899H14.0377V3.57959Z" fill="#131315"/>
<path d="M7.01867 3.57959L3.50928 3.57959L3.50928 7.08899H7.01867V3.57959Z" fill="#131315"/>
<path d="M7.01892 14.1079H10.5283V10.5985H7.01892V14.1079Z" fill="#131315"/>
<path d="M7.01892 17.6172H10.5283V14.1078H7.01892V17.6172Z" fill="#131315"/>
<path d="M3.50916 14.1079H7.01855V10.5985H3.50916V14.1079Z" fill="#131315"/>
<path d="M10.5282 14.1079H14.0376V10.5985H10.5282V14.1079Z" fill="#131315"/>
<path d="M14.0377 7.08911H10.5283V10.5985H14.0377V7.08911Z" fill="#131315"/>
<path d="M17.547 7.08911H14.0376V10.5985H17.547V7.08911Z" fill="#131315"/>
<path d="M7.01867 7.08911H3.50928L3.50928 10.5985H7.01867V7.08911Z" fill="#131315"/>
<path d="M3.5094 7.08911H0L0 10.5985H3.5094L3.5094 7.08911Z" fill="#131315"/>
</g>
<defs>
<clipPath id="clip0_1_3620">
<rect width="17.547" height="17.547" fill="white" transform="translate(0 0.0703125)"/>
</clipPath>
</defs>
</svg>
