<svg width="38" height="48" viewBox="0 0 38 48" fill="none" xmlns="http://www.w3.org/2000/svg">
<g clip-path="url(#clip0_1_2134)">
<path d="M30.7735 34.8047H27.4097V38.1039H30.7735V34.8047Z" fill="#232323"/>
<path d="M27.4098 38.1027H24.0459V41.4018H27.4098V38.1027Z" fill="#232323"/>
<path d="M24.046 41.4018H20.6821V44.7009H24.046V41.4018Z" fill="#232323"/>
<path d="M20.6817 44.7009H17.3179V48H20.6817V44.7009Z" fill="#232323"/>
<path d="M17.318 41.4018H13.9541V44.7009H17.318V41.4018Z" fill="#232323"/>
<path d="M13.9557 38.1027H10.5918V41.4018H13.9557V38.1027Z" fill="#232323"/>
<path d="M10.5914 34.8047H7.22754V38.1039H10.5914V34.8047Z" fill="#232323"/>
<path d="M13.9542 31.5056V3.29911H24.0458V31.5056H30.7723V34.8047H34.1361V31.5056H37.5V28.2065H27.4096V0H10.5916V28.2065H0.5V31.5056H3.86386V34.8047H7.22772V31.5056H13.9542Z" fill="#232323"/>
</g>
<defs>
<clipPath id="clip0_1_2134">
<rect width="37" height="48" fill="white" transform="translate(0.5)"/>
</clipPath>
</defs>
</svg>
