<svg width="50" height="22" viewBox="0 0 50 22" fill="none" xmlns="http://www.w3.org/2000/svg">
<path d="M21.2736 3.94417V0.473633H3.77296H0.290527V3.94417V21.3851H3.77296V7.43302H7.2821V3.94417H21.2736Z" fill="white"/>
<path d="M10.8082 10.8919V7.44633H7.29736V10.9452H10.7547V14.3907H14.2656V10.8919H10.8082Z" fill="white"/>
<path d="M17.776 14.3907H14.2651V17.8896H17.776V14.3907Z" fill="white"/>
<path d="M21.2852 17.8896H17.7744V21.3884H21.2852V17.8896Z" fill="white"/>
<path d="M28.7261 17.9629V21.4318H46.2267H49.7075V17.9629V0.52034H46.2267V14.4741H42.7159V17.9629H28.7261Z" fill="white"/>
<path d="M39.1918 11.0134V14.459H42.7009V10.9602H39.2452V7.51459H35.7344V11.0134H39.1918Z" fill="white"/>
<path d="M35.7345 4.01741H32.2236V7.51624H35.7345V4.01741Z" fill="white"/>
<path d="M32.2252 0.518578H28.7144V4.01741H32.2252V0.518578Z" fill="white"/>
</svg>
