<svg width="38" height="49" viewBox="0 0 38 49" fill="none" xmlns="http://www.w3.org/2000/svg">
<g clip-path="url(#clip0_39_1300)">
<path d="M7.538 13.5176L10.9019 13.5176L10.9019 10.2185L7.538 10.2185L7.538 13.5176Z" fill="#232323"/>
<path d="M10.9018 10.2197L14.2656 10.2197L14.2656 6.92061L10.9018 6.92061L10.9018 10.2197Z" fill="#232323"/>
<path d="M14.2655 6.9209L17.6294 6.9209L17.6294 3.62179L14.2655 3.62179L14.2655 6.9209Z" fill="#232323"/>
<path d="M17.6298 3.62109L20.9937 3.62109L20.9937 0.321979L17.6298 0.321978L17.6298 3.62109Z" fill="#232323"/>
<path d="M20.9936 6.9209L24.3574 6.9209L24.3574 3.62179L20.9936 3.62179L20.9936 6.9209Z" fill="#232323"/>
<path d="M24.3561 10.2197L27.72 10.2197L27.72 6.92061L24.3561 6.92061L24.3561 10.2197Z" fill="#232323"/>
<path d="M27.7199 13.5176L31.0837 13.5176L31.0837 10.2185L27.7199 10.2185L27.7199 13.5176Z" fill="#232323"/>
<path d="M24.3573 16.8166L24.3573 45.0232L14.2657 45.0231L14.2657 16.8166L7.53924 16.8166L7.53924 13.5175L4.17538 13.5175L4.17538 16.8166L0.811526 16.8166L0.811526 20.1157L10.9019 20.1157L10.9019 48.3223L27.7199 48.3223L27.7199 20.1157L37.8115 20.1157L37.8115 16.8166L34.4477 16.8166L34.4477 13.5175L31.0838 13.5175L31.0838 16.8166L24.3573 16.8166Z" fill="#232323"/>
</g>
<defs>
<clipPath id="clip0_39_1300">
<rect width="37" height="48" fill="white" transform="translate(37.8115 48.3223) rotate(-180)"/>
</clipPath>
</defs>
</svg>
