<svg width="38" height="49" viewBox="0 0 38 49" fill="none" xmlns="http://www.w3.org/2000/svg">
<g clip-path="url(#clip0_39_1318)">
<path d="M30.8531 35.127H27.4893V38.4261H30.8531V35.127Z" fill="#232323"/>
<path d="M27.4893 38.4248H24.1255V41.7239H27.4893V38.4248Z" fill="#232323"/>
<path d="M24.1256 41.7236H20.7617V45.0227H24.1256V41.7236Z" fill="#232323"/>
<path d="M20.7613 45.0234H17.3975V48.3226H20.7613V45.0234Z" fill="#232323"/>
<path d="M17.3976 41.7236H14.0337V45.0227H17.3976V41.7236Z" fill="#232323"/>
<path d="M14.035 38.4248H10.6711V41.7239H14.035V38.4248Z" fill="#232323"/>
<path d="M10.6712 35.127H7.30737V38.4261H10.6712V35.127Z" fill="#232323"/>
<path d="M14.0338 31.8279V3.62138H24.1254V31.8279H30.8519V35.127H34.2157V31.8279H37.5796V28.5288H27.4892V0.322266L10.6712 0.322266V28.5288H0.57959L0.57959 31.8279H3.94345V35.127H7.30731V31.8279H14.0338Z" fill="#232323"/>
</g>
<defs>
<clipPath id="clip0_39_1318">
<rect width="37" height="48" fill="white" transform="translate(0.57959 0.322266)"/>
</clipPath>
</defs>
</svg>
