<svg width="28" height="24" viewBox="0 0 28 24" fill="none" xmlns="http://www.w3.org/2000/svg">
<path fill-rule="evenodd" clip-rule="evenodd" d="M28 22C28 20.8954 27.1046 20 26 20H2C0.895401 20 0 20.8954 0 22C0 23.1046 0.895401 24 2 24H26C27.1046 24 28 23.1046 28 22ZM28 2C28 0.89542 27.1046 0 26 0H2C0.895401 0 0 0.89542 0 2C0 3.10456 0.895401 4 2 4H26C27.1046 4 28 3.10456 28 2ZM28 12C28 10.8954 27.1046 10 26 10H14C12.8954 10 12 10.8954 12 12C12 13.1046 12.8954 14 14 14H26C27.1046 14 28 13.1046 28 12Z" fill="white"/>
</svg>
