<svg width="236" height="36" viewBox="0 0 236 36" fill="none" xmlns="http://www.w3.org/2000/svg">
<g clip-path="url(#clip0_27_914)">
<path d="M3.3438 27.9257C2.25982 27.2948 1.43139 26.3993 0.858498 25.2375C0.285609 24.0756 0 22.7041 0 21.1194V7.52524H3.51583V20.4952C3.51583 22.1997 3.91669 23.5064 4.7184 24.4119C5.52011 25.3174 6.72935 25.7718 8.34613 25.7718C9.45016 25.7718 10.4139 25.5271 11.2356 25.0361C12.0574 24.5467 12.6937 23.8542 13.1447 22.9621C13.5957 22.0699 13.8211 21.0329 13.8211 19.8511V7.52524H17.337V28.47H13.8211V25.4888H13.741C13.1748 26.4692 12.3564 27.2782 11.2857 27.9157C10.2151 28.5532 8.87727 28.8728 7.27385 28.8728C5.67043 28.8728 4.42778 28.5565 3.3438 27.9257Z" fill="#2A2A2A"/>
<path d="M21.1064 7.52524H24.6223V11.069H24.7024C25.1467 10.2501 25.6962 9.5493 26.3493 8.96505C27.0024 8.3808 27.754 7.92805 28.6024 7.60513C29.4509 7.28222 30.3745 7.12242 31.3717 7.12242C33.1638 7.12242 34.7288 7.56851 36.07 8.46237C37.4095 9.35622 38.4518 10.6179 39.1917 12.2492C39.9316 13.8804 40.3024 15.7963 40.3024 17.9984V18.0184C40.3024 20.2206 39.9283 22.1331 39.1817 23.7577C38.4334 25.3823 37.3962 26.6407 36.07 27.5328C34.7422 28.4267 33.1972 28.8728 31.4318 28.8728C30.448 28.8728 29.5261 28.7147 28.6626 28.4001C27.8007 28.0855 27.0358 27.6344 26.3693 27.0501C25.7029 26.4659 25.1467 25.7718 24.7024 24.9661H24.6223V35.5192H21.1064V7.52524ZM33.8971 24.8247C34.799 24.1938 35.4938 23.2983 35.9782 22.1365C36.4625 20.9746 36.7064 19.603 36.7064 18.0184V17.9984C36.7064 16.3872 36.4642 15.0006 35.9782 13.8405C35.4938 12.6786 34.799 11.7864 33.8971 11.1622C32.9951 10.538 31.9228 10.2251 30.6835 10.2251C29.4442 10.2251 28.4471 10.548 27.5318 11.1922C26.6149 11.8364 25.8983 12.7402 25.3789 13.9004C24.8594 15.0622 24.6006 16.4271 24.6006 17.9984V18.0184C24.6006 19.5764 24.8628 20.9347 25.3889 22.0965C25.915 23.2583 26.6316 24.1605 27.5418 24.8047C28.4504 25.4489 29.4993 25.7718 30.6835 25.7718C31.8677 25.7718 32.9935 25.4572 33.8971 24.8247Z" fill="#2A2A2A"/>
<path d="M46.3472 27.9257C45.2632 27.2948 44.4348 26.3993 43.8619 25.2375C43.289 24.0756 43.0034 22.7041 43.0034 21.1194V7.52524H46.5192V20.4952C46.5192 22.1997 46.9201 23.5064 47.7218 24.4119C48.5235 25.3174 49.7328 25.7718 51.3496 25.7718C52.4536 25.7718 53.4173 25.5271 54.239 25.0361C55.0608 24.5467 55.6972 23.8542 56.1481 22.9621C56.5991 22.0699 56.8246 21.0329 56.8246 19.8511V7.52524H60.3404V28.47H56.8246V25.4888H56.7444C56.1782 26.4692 55.3598 27.2782 54.2892 27.9157C53.2185 28.5532 51.8807 28.8728 50.2773 28.8728C48.6738 28.8728 47.4312 28.5565 46.3472 27.9257Z" fill="#2A2A2A"/>
<path d="M64.1084 7.52524H67.6242V11.069H67.7044C68.1487 10.2501 68.6982 9.5493 69.3512 8.96505C70.0043 8.3808 70.7559 7.92805 71.6044 7.60513C72.4529 7.28222 73.3765 7.12242 74.3736 7.12242C76.1658 7.12242 77.7308 7.56851 79.072 8.46237C80.4115 9.35622 81.4537 10.6179 82.1936 12.2492C82.9335 13.8804 83.3043 15.7963 83.3043 17.9984V18.0184C83.3043 20.2206 82.9302 22.1331 82.1836 23.7577C81.4354 25.3823 80.3981 26.6407 79.072 27.5328C77.7442 28.4267 76.1992 28.8728 74.4338 28.8728C73.45 28.8728 72.528 28.7147 71.6645 28.4001C70.8027 28.0855 70.0377 27.6344 69.3713 27.0501C68.7049 26.4659 68.1487 25.7718 67.7044 24.9661H67.6242V35.5192H64.1084V7.52524ZM76.899 24.8247C77.8009 24.1938 78.4958 23.2983 78.9801 22.1365C79.4645 20.9746 79.7083 19.603 79.7083 18.0184V17.9984C79.7083 16.3872 79.4662 15.0006 78.9801 13.8405C78.4958 12.6786 77.8009 11.7864 76.899 11.1622C75.9971 10.538 74.9248 10.2251 73.6855 10.2251C72.4462 10.2251 71.4491 10.548 70.5338 11.1922C69.6168 11.8364 68.9003 12.7402 68.3825 13.9004C67.8631 15.0622 67.6042 16.4271 67.6042 17.9984V18.0184C67.6042 19.5764 67.8664 20.9347 68.3925 22.0965C68.9187 23.2583 69.6352 24.1605 70.5438 24.8047C71.4524 25.4489 72.4996 25.7718 73.6855 25.7718C74.8714 25.7718 75.9954 25.4572 76.899 24.8247Z" fill="#2A2A2A"/>
<path d="M232.655 8.10948C233.739 8.74034 234.567 9.63585 235.14 10.7977C235.713 11.9595 235.999 13.3311 235.999 14.9157V28.5099H232.483V15.5399C232.483 13.8355 232.082 12.5288 231.28 11.6233C230.478 10.7178 229.269 10.2634 227.652 10.2634C226.548 10.2634 225.585 10.5081 224.763 10.9991C223.941 11.4885 223.305 12.1809 222.854 13.0731C222.403 13.9653 222.177 15.0023 222.177 16.1841V28.5083H218.662V7.56685H222.177V10.548H222.258C222.824 9.56761 223.642 8.75865 224.713 8.12113C225.783 7.48362 227.121 7.16403 228.725 7.16403C230.328 7.16403 231.571 7.48029 232.655 8.11115V8.10948Z" fill="#2A2A2A"/>
<path d="M214.894 28.5099H211.378V24.9661H211.298C210.853 25.7851 210.304 26.4859 209.651 27.0701C208.998 27.6544 208.246 28.1071 207.398 28.43C206.549 28.7529 205.626 28.9127 204.628 28.9127C202.836 28.9127 201.271 28.4666 199.93 27.5728C198.591 26.6789 197.548 25.4172 196.808 23.786C196.069 22.1548 195.698 20.2389 195.698 18.0367V18.0167C195.698 15.8146 196.072 13.902 196.818 12.2775C197.567 10.6529 198.604 9.3945 199.93 8.50231C201.258 7.60846 202.803 7.16237 204.568 7.16237C205.552 7.16237 206.474 7.3205 207.338 7.63509C208.199 7.94969 208.964 8.40078 209.631 8.98502C210.297 9.56927 210.853 10.2634 211.298 11.069H211.378V0.517578H214.894V28.5099ZM202.101 11.2105C201.199 11.8414 200.505 12.7369 200.02 13.8987C199.536 15.0605 199.292 16.4321 199.292 18.0167V18.0367C199.292 19.648 199.534 21.0345 200.02 22.1947C200.505 23.3565 201.199 24.2487 202.101 24.8729C203.003 25.4971 204.076 25.8101 205.315 25.8101C206.554 25.8101 207.551 25.4871 208.467 24.843C209.384 24.1988 210.1 23.295 210.62 22.1348C211.139 20.9729 211.398 19.608 211.398 18.0367V18.0167C211.398 16.4587 211.136 15.1005 210.61 13.9387C210.083 12.7768 209.367 11.8746 208.457 11.2305C207.548 10.5863 206.499 10.2634 205.315 10.2634C204.131 10.2634 203.005 10.578 202.101 11.2105Z" fill="#2A2A2A"/>
<path d="M189.653 8.10948C190.737 8.74034 191.565 9.63585 192.138 10.7977C192.711 11.9595 192.997 13.3311 192.997 14.9157V28.5099H189.481V15.5399C189.481 13.8355 189.08 12.5288 188.278 11.6233C187.477 10.7178 186.267 10.2634 184.651 10.2634C183.547 10.2634 182.583 10.5081 181.761 10.9991C180.939 11.4885 180.303 12.1809 179.852 13.0731C179.401 13.9653 179.176 15.0023 179.176 16.1841V28.5083H175.66V7.56685H179.176V10.548H179.256C179.822 9.56761 180.64 8.75865 181.711 8.12113C182.782 7.48362 184.119 7.16403 185.723 7.16403C187.326 7.16403 188.569 7.48029 189.653 8.11115V8.10948Z" fill="#2A2A2A"/>
<path d="M171.892 28.5099H168.376V24.9661H168.296C167.851 25.7851 167.302 26.4859 166.649 27.0701C165.996 27.6544 165.244 28.1071 164.396 28.43C163.547 28.7529 162.624 28.9127 161.627 28.9127C159.834 28.9127 158.269 28.4666 156.928 27.5728C155.589 26.6789 154.546 25.4172 153.807 23.786C153.067 22.1548 152.696 20.2389 152.696 18.0367V18.0167C152.696 15.8146 153.07 13.902 153.817 12.2775C154.565 10.6529 155.602 9.3945 156.928 8.50231C158.256 7.60846 159.801 7.16237 161.566 7.16237C162.55 7.16237 163.472 7.3205 164.336 7.63509C165.197 7.94969 165.962 8.40078 166.629 8.98502C167.295 9.56927 167.851 10.2634 168.296 11.069H168.376V0.517578H171.892V28.5099ZM159.099 11.2105C158.198 11.8414 157.503 12.7369 157.018 13.8987C156.534 15.0605 156.29 16.4321 156.29 18.0167V18.0367C156.29 19.648 156.532 21.0345 157.018 22.1947C157.503 23.3565 158.198 24.2487 159.099 24.8729C160.001 25.4971 161.074 25.8101 162.313 25.8101C163.552 25.8101 164.549 25.4871 165.465 24.843C166.382 24.1988 167.098 23.295 167.616 22.1348C168.135 20.9729 168.394 19.608 168.394 18.0367V18.0167C168.394 16.4587 168.132 15.1005 167.606 13.9387C167.08 12.7768 166.363 11.8746 165.455 11.2305C164.546 10.5863 163.499 10.2634 162.313 10.2634C161.127 10.2634 160.003 10.578 159.099 11.2105Z" fill="#2A2A2A"/>
<path d="M114.274 10.9442V7.47363H96.773H93.2905V10.9442V28.3851H96.773V14.433H100.282V10.9442H114.274Z" fill="#2A2A2A"/>
<path d="M103.808 17.8919V14.4463H100.297V17.9452H103.755V21.3907H107.266V17.8919H103.808Z" fill="#2A2A2A"/>
<path d="M110.776 21.3907H107.265V24.8896H110.776V21.3907Z" fill="#2A2A2A"/>
<path d="M114.285 24.8896H110.774V28.3884H114.285V24.8896Z" fill="#2A2A2A"/>
<path d="M121.726 24.9629V28.4318H139.227H142.707V24.9629V7.52034H139.227V21.4741H135.716V24.9629H121.726Z" fill="#2A2A2A"/>
<path d="M132.192 18.0134V21.459H135.701V17.9602H132.245V14.5146H128.734V18.0134H132.192Z" fill="#2A2A2A"/>
<path d="M128.734 11.0174H125.224V14.5162H128.734V11.0174Z" fill="#2A2A2A"/>
<path d="M125.225 7.51858H121.714V11.0174H125.225V7.51858Z" fill="#2A2A2A"/>
</g>
<defs>
<clipPath id="clip0_27_914">
<rect width="236" height="35" fill="white" transform="translate(0 0.517578)"/>
</clipPath>
</defs>
</svg>
