<svg width="28" height="69" viewBox="0 0 28 69" fill="none" xmlns="http://www.w3.org/2000/svg">
<g clip-path="url(#clip0_1_2124)">
<path d="M5.09091 40.9584V43.4769H2.54545V40.9584H0V28.3658H2.54545V25.8473H5.09091V28.3658H22.9091V25.8473H25.4545V28.3658H28V40.9584H25.4545V43.4769H22.9091V40.9584H5.09091ZM25.4545 30.8843H2.54545V33.4028H25.4545V30.8843ZM25.4545 38.4399V35.9214H2.54545V38.4399H25.4545Z" fill="#232323"/>
<path d="M5.09091 10.7362V13.2547H2.54545V10.7362H0V0.662109H2.54545V3.18063H25.4545V0.662109H28V10.7362H25.4545V13.2547H22.9091V10.7362H5.09091ZM25.4545 8.21767V5.69915H2.54545V8.21767H25.4545Z" fill="#232323"/>
<path d="M5.091 56.0695V53.551H7.63645V51.0325H10.1819V53.551H17.8183V51.0325H20.3637V53.551H22.9092V56.0695H5.091Z" fill="#232323"/>
<path d="M5.091 25.8473V23.3288H7.63645V20.8103H10.1819V23.3288H17.8183V20.8103H20.3637V23.3288H22.9092V25.8473H5.091Z" fill="#232323"/>
<path d="M10.1819 45.9955V48.514H7.63645V45.9955H5.091V43.4769H22.9092V45.9955H20.3637V48.514H17.8183V45.9955H10.1819Z" fill="#232323"/>
<path d="M10.1819 15.7733V18.2918H7.63645V15.7733H5.091V13.2548H22.9092V15.7733H20.3637V18.2918H17.8183V15.7733H10.1819Z" fill="#232323"/>
<path d="M10.1818 48.5139H17.8181V51.0324H10.1818V48.5139Z" fill="#232323"/>
<path d="M10.1818 18.2917H17.8181V20.8103H10.1818V18.2917Z" fill="#232323"/>
<path d="M0 58.588H2.54545V56.0695H5.09091V58.588H22.9091V56.0695H25.4545V58.588H28V68.6621H25.4545V66.1435H2.54545V68.6621H0V58.588ZM25.4545 63.625V61.1065H2.54545V63.625H25.4545Z" fill="#232323"/>
</g>
<defs>
<clipPath id="clip0_1_2124">
<rect width="28" height="68" fill="white" transform="matrix(-1 0 0 1 28 0.662109)"/>
</clipPath>
</defs>
</svg>
